<?xml version="1.0" encoding="UTF-8"?>
<svg width="24px" height="24px" viewBox="0 0 24 24" version="1.1" xmlns="http://www.w3.org/2000/svg" xmlns:xlink="http://www.w3.org/1999/xlink">
    <title>gif</title>
    <g id="gif" stroke="none" stroke-width="1" fill="none" fill-rule="evenodd">
        <rect id="矩形" x="0" y="0" width="24" height="24"></rect>
        <g id="GIF" transform="translate(4.500000, 5.000000)" fill="#FFFFFF" fill-rule="nonzero">
            <path d="M3.4005,3.584 C2.403,3.584 1.605,3.926 1.016,4.629 C0.4555,5.2845 0.18,6.1205 0.18,7.137 C0.18,8.144 0.4555,8.9705 1.016,9.607 C1.6145,10.291 2.4505,10.633 3.5335,10.633 C4.1225,10.633 4.664,10.557 5.158,10.405 C5.6235,10.253 6.032,10.044 6.3835,9.7685 L6.3835,6.9185 L3.4765,6.9185 L3.4765,7.802 L5.348,7.802 L5.348,9.2745 C5.12,9.417 4.873,9.531 4.588,9.607 C4.2935,9.683 3.98,9.7305 3.6475,9.7305 C2.802,9.7305 2.175,9.493 1.776,9.018 C1.396,8.581 1.2155,7.954 1.2155,7.137 C1.2155,6.301 1.415,5.6455 1.833,5.1705 C2.2225,4.7145 2.745,4.496 3.4005,4.496 C3.9325,4.496 4.3695,4.61 4.6925,4.8475 C5.0155,5.0755 5.2245,5.4175 5.3195,5.8735 L6.3645,5.8735 C6.241,5.1135 5.937,4.553 5.4525,4.173 C4.949,3.774 4.265,3.584 3.4005,3.584 Z M7.647,3.717 L7.647,10.5 L8.673,10.5 L8.673,3.717 L7.647,3.717 Z M10.022,3.717 L10.022,10.5 L11.0575,10.5 L11.0575,7.46 L14.43,7.46 L14.43,6.5765 L11.0575,6.5765 L11.0575,4.6005 L14.6295,4.6005 L14.6295,3.717 L10.022,3.717 Z M0.5,0 L14.5,0 C14.7761424,-5.07265313e-17 15,0.223857625 15,0.5 C15,0.776142375 14.7761424,1 14.5,1 L0.5,1 C0.223857625,1 3.38176876e-17,0.776142375 0,0.5 C-3.38176876e-17,0.223857625 0.223857625,5.07265313e-17 0.5,0 Z M0.5,13 L14.5,13 C14.7761424,13 15,13.2238576 15,13.5 C15,13.7761424 14.7761424,14 14.5,14 L0.5,14 C0.223857625,14 3.38176876e-17,13.7761424 0,13.5 C-3.38176876e-17,13.2238576 0.223857625,13 0.5,13 Z" id="形状结合"></path>
        </g>
    </g>
</svg>