<?xml version="1.0" encoding="UTF-8"?>
<svg width="24px" height="24px" viewBox="0 0 24 24" version="1.1" xmlns="http://www.w3.org/2000/svg" xmlns:xlink="http://www.w3.org/1999/xlink">
    <title>标注</title>
    <g id="标注" stroke="none" stroke-width="1" fill="none" fill-rule="evenodd">
        <path d="M18,5 C19.1045695,5 20,5.8954305 20,7 L20,15 C20,16.1045695 19.1045695,17 18,17 L13.5,17 L9.64341851,19.5710543 C9.41365416,19.7242306 9.10321949,19.6621436 8.95004326,19.4323793 C8.91080412,19.3735206 8.88450093,19.3070056 8.87287145,19.2372287 L8.5,17 L7,17 C5.8954305,17 5,16.1045695 5,15 L5,7 C5,5.8954305 5.8954305,5 7,5 L18,5 Z M18,6 L7,6 C6.44771525,6 6,6.44771525 6,7 L6,15 C6,15.5522847 6.44771525,16 7,16 L8.5,16 C8.98883915,16 9.40602926,16.353413 9.48639392,16.835601 L9.732,18.31 L12.9452998,16.1679497 C13.0767138,16.0803404 13.2265215,16.0254182 13.3822697,16.0069536 L13.5,16 L18,16 C18.5522847,16 19,15.5522847 19,15 L19,7 C19,6.44771525 18.5522847,6 18,6 Z M12.5,7 C12.7761424,7 13,7.22385763 13,7.5 L13,10 L15.5,10 C15.7761424,10 16,10.2238576 16,10.5 C16,10.7761424 15.7761424,11 15.5,11 L13,11 L13,13.5 C13,13.7761424 12.7761424,14 12.5,14 C12.2238576,14 12,13.7761424 12,13.5 L12,11 L9.5,11 C9.22385763,11 9,10.7761424 9,10.5 C9,10.2238576 9.22385763,10 9.5,10 L12,10 L12,7.5 C12,7.22385763 12.2238576,7 12.5,7 Z" id="形状结合" fill="#FFFFFF" fill-rule="nonzero"></path>
    </g>
</svg>