<?xml version="1.0" standalone="no"?><!DOCTYPE svg PUBLIC "-//W3C//DTD SVG 1.1//EN" "http://www.w3.org/Graphics/SVG/1.1/DTD/svg11.dtd"><svg t="1671971332966" class="icon" viewBox="0 0 1025 1024" version="1.1" xmlns="http://www.w3.org/2000/svg" p-id="10107" xmlns:xlink="http://www.w3.org/1999/xlink" width="128.125" height="128"><path d="M511.781972 0C229.570487 0 0.001608 229.56888 0.001608 511.750414c0 282.181535 229.56888 511.760398 511.770381 511.760398 282.171551 0 511.750414-229.578863 511.750414-511.760398 0.009983-282.181535-229.558896-511.750414-511.740431-511.750414z m0 954.135985c-243.945013 0-442.395554-198.460525-442.395554-442.385571S267.836959 69.374827 511.781972 69.374827c243.915063 0 442.375587 198.460525 442.375588 442.375587S755.697035 954.135985 511.781972 954.135985z m0 0" p-id="10108" fill="#8a8a8a"></path><path d="M380.829374 633.478327l-77.681037-243.286107c-2.026635-6.259608-5.750453-11.331188-11.07162-15.214741-5.321166-3.893536-11.241338-5.840304-17.750531-5.840304h-22.482675c-6.678912 0-12.678951 1.946768-17.92025 5.840304-5.241299 3.883553-8.795398 8.955133-10.822034 15.214741l-77.351584 243.286107c-0.509155 1.697182-0.75874 3.464249-0.75874 5.241299 0 3.294531 0.928459 6.259608 2.955094 9.044984 3.294531 4.482558 7.607371 6.758779 13.098255 6.758779h13.357824c6.509194 0 12.339514-1.946768 17.411095-6.000039 5.151448-4.053271 8.535829-9.214702 10.312879-15.47431l13.447674-48.948738c0.509155-2.026635 1.607332-3.044945 3.384382-3.044945h86.306717c2.026635 0 3.214663 1.018309 3.713835 3.044945l13.108238 48.948738c1.77705 6.339475 5.241299 11.411056 10.482597 15.47431 5.241299 3.973404 11.071619 6.000039 17.580813 6.000039h15.38446c5.241299 0 9.464288-2.196354 12.67895-6.758779 2.286205-2.795359 3.384381-5.750453 3.384382-9.044984-0.009983-1.687199-0.269553-3.464249-0.768724-5.241299z m-85.977264-97.378337c-0.509155 0.599006-1.098177 0.928459-1.856917 0.928459H231.287637c-0.75874 0-1.357746-0.339436-1.697183-0.928459-0.329453-0.66889-0.419304-1.347763-0.169718-2.116486l7.437652-28.233129c8.705547-31.108355 16.742205-62.046992 23.920289-92.646192 0.249586-0.509155 0.589022-0.75874 1.098177-0.758741 0.509155 0 0.75874 0.249586 0.75874 0.758741 1.77705 6.000039 5.490884 20.116603 11.241338 42.349692 5.750453 22.23309 10.233012 38.965311 13.437691 50.2965l7.86694 28.233129c0.259569 0.768724 0.179702 1.527464-0.329453 2.116486zM617.007282 526.036697c-9.464288-11.331188-22.143239-18.928576-38.126704-22.99183-0.509155 0-0.75874-0.339436-0.75874-1.098177 0-0.768724 0.329453-1.098177 1.098177-1.098177 11.241338-4.482558 20.286322-12.509233 27.134951-24.090007 6.84863-11.580774 10.312879-24.010139 10.312879-37.278112 0-46.922102-34.1533-70.413103-102.449917-70.413103h-71.770849c-5.920172 0-11.071619 2.196354-15.47431 6.589061-4.31284 4.392707-6.509194 9.634006-6.509194 15.644028v241.009886c0 6.000039 2.116486 11.241338 6.509194 15.634045 4.31284 4.392707 9.464288 6.599045 15.47431 6.599045h79.288369c32.635819 0 59.002047-7.098216 79.208501-21.304631 20.206454-14.206415 30.259764-35.081759 30.259765-62.725865 0.009983-18.349537-4.72216-33.144974-14.196432-44.476163zM477.279252 415.390387c0-1.77705 0.928459-2.615658 2.625641-2.615658h31.018505c17.161509 0 29.930311 2.785376 38.296422 8.286244 8.366111 5.490884 12.509233 14.456001 12.509232 26.715648 0 11.750492-4.222989 20.965195-12.678951 27.474388-8.455962 6.509194-21.474349 9.803724-38.885444 9.803724h-30.259764c-1.77705 0-2.625641-0.848591-2.625641-2.625641v-67.038705z m39.224881 195.09611h-36.59924c-1.77705 0-2.625641-0.848591-2.625641-2.625641h-0.089851v-77.092015c0-2.026635 0.928459-3.044945 2.625641-3.044945h36.59924c19.946885 0 34.912041 3.124812 44.885483 9.38442 9.973443 6.259608 14.965156 16.312918 14.965156 30.090046 0 28.832134-19.867018 43.288135-59.760788 43.288135zM796.47933 659.774671c-17.92025 0-34.652471-3.214663-50.2965-9.634006-15.554178-6.429326-29.251438-15.723896-41.081798-27.893692-11.83036-12.17978-21.21478-27.644106-28.06341-46.323097-6.84863-18.688973-10.312879-39.734035-10.312879-63.065301 0-22.822112 3.464249-43.787306 10.482597-62.725866 7.018348-18.928576 16.482636-34.742322 28.572565-47.251555 12.089929-12.599084 26.126626-22.23309 42.010257-28.991869 15.983465-6.758779 32.885405-10.143161 50.805655-10.14316 23.920289 0 45.98366 7.437652 66.190114 22.233089 5.490884 3.803685 8.206376 9.304553 8.206376 16.572487 0 5.490884-1.856917 10.562465-5.580735 15.045023l-1.527465 1.856917c-3.713834 4.482558-8.705547 7.018348-14.965155 7.527504h-2.276221c-5.241299 0-9.973443-1.357746-14.206415-4.143122-10.991752-6.758779-22.572526-10.143161-34.742323-10.143161-21.893653 0-39.903754 8.875266-54.020317 26.54593s-21.134913 41.590953-21.134913 71.770849c0 30.85877 6.678912 55.198362 20.036736 72.869026 13.357824 17.670664 31.278074 26.54593 54.010334 26.545929 14.965156 0 28.912002-4.482558 41.840538-13.517558 4.222989-3.044945 9.044984-4.482558 14.545852-4.482559h1.517481c6.000039 0.259569 10.822034 2.615658 14.545851 7.188067l1.517481 1.527464c3.973404 4.562426 6.000039 9.803724 6.000039 15.803764 0 7.018348-2.445939 12.599084-7.437652 16.572487-20.875344 17.550863-45.724091 26.25641-74.636093 26.25641z" p-id="10109" fill="#8a8a8a"></path></svg>