<?xml version="1.0" encoding="UTF-8"?>
<svg width="24px" height="24px" viewBox="0 0 24 24" version="1.1" xmlns="http://www.w3.org/2000/svg" xmlns:xlink="http://www.w3.org/1999/xlink">
    <title>标注-字母</title>
    <g id="标注-字母" stroke="none" stroke-width="1" fill="none" fill-rule="evenodd">
        <path d="M5.31054688,11.7060547 L6.23779297,8.90673828 L6.25537109,8.90673828 L7.18261719,11.7060547 L5.31054688,11.7060547 Z M7.95605469,14 L8.97998047,14 L6.65087891,7.59277344 L5.83789062,7.59277344 L3.50878906,14 L4.53710938,14 L5.02929688,12.5673828 L7.45947266,12.5673828 L7.95605469,14 Z M10.1655273,14 L12.8637695,14 C13.3676758,14 13.7880859,13.831543 14.125,13.4946289 C14.4648438,13.1723633 14.6376953,12.734375 14.6435547,12.1806641 C14.6435547,11.8466797 14.5600586,11.5375977 14.3930664,11.253418 C14.2143555,10.9780273 13.9506836,10.7949219 13.6020508,10.7041016 L13.6020508,10.6865234 C13.7866211,10.5986328 13.9418945,10.5004883 14.0678711,10.3920898 C14.1938477,10.2895508 14.2905273,10.1811523 14.3579102,10.0668945 C14.4897461,9.82666016 14.5527344,9.57470703 14.546875,9.31103516 C14.546875,8.79541016 14.387207,8.38085938 14.0678711,8.06738281 C13.7514648,7.75683594 13.2783203,7.59863281 12.6484375,7.59277344 L10.1655273,7.59277344 L10.1655273,14 Z M12.6308594,11.1567383 C12.9912109,11.1625977 13.2548828,11.2578125 13.421875,11.4423828 C13.5888672,11.6298828 13.6723633,11.8554688 13.6723633,12.1191406 C13.6723633,12.3769531 13.5888672,12.5996094 13.421875,12.7871094 C13.2548828,12.9775391 12.9912109,13.0756836 12.6308594,13.081543 L11.1367188,13.081543 L11.1367188,11.1567383 L12.6308594,11.1567383 Z M12.5385742,8.45849609 C12.8930664,8.46435547 13.1538086,8.55078125 13.3208008,8.71777344 C13.4907227,8.89648438 13.5756836,9.11474609 13.5756836,9.37255859 C13.5756836,9.63037109 13.4907227,9.84423828 13.3208008,10.0141602 C13.1538086,10.1987305 12.8930664,10.2910156 12.5385742,10.2910156 L11.1367188,10.2910156 L11.1367188,8.45849609 L12.5385742,8.45849609 Z M19.4458008,12.2070312 C19.1762695,12.7900391 18.769043,13.081543 18.2241211,13.081543 C17.9956055,13.081543 17.7993164,13.0332031 17.6352539,12.9365234 C17.4682617,12.8544922 17.3334961,12.7475586 17.230957,12.6157227 C17.1049805,12.4780273 17.0214844,12.2978516 16.9804688,12.0751953 C16.9335938,11.8525391 16.9101562,11.4262695 16.9101562,10.7963867 C16.9101562,10.1665039 16.9335938,9.73730469 16.9804688,9.50878906 C17.0214844,9.29199219 17.1049805,9.11474609 17.230957,8.97705078 C17.3334961,8.84521484 17.4682617,8.73535156 17.6352539,8.64746094 C17.7993164,8.5625 17.9956055,8.51708984 18.2241211,8.51123047 C18.534668,8.51708984 18.7983398,8.60644531 19.0151367,8.77929688 C19.2231445,8.9609375 19.3666992,9.18066406 19.4458008,9.43847656 L20.4741211,9.43847656 C20.371582,8.90234375 20.1254883,8.45263672 19.7358398,8.08935547 C19.3461914,7.72900391 18.8422852,7.54589844 18.2241211,7.54003906 C17.7202148,7.54589844 17.2998047,7.66601562 16.9628906,7.90039062 C16.6201172,8.13183594 16.3710938,8.39550781 16.2158203,8.69140625 C16.1191406,8.84667969 16.0473633,9.05029297 16.0004883,9.30224609 C15.956543,9.55419922 15.9345703,10.0522461 15.9345703,10.7963867 C15.9345703,11.5288086 15.956543,12.0239258 16.0004883,12.2817383 C16.0239258,12.4194336 16.0532227,12.5336914 16.0883789,12.6245117 C16.1264648,12.7124023 16.1689453,12.8046875 16.2158203,12.9013672 C16.3710938,13.1972656 16.6201172,13.4580078 16.9628906,13.6835938 C17.2998047,13.9179688 17.7202148,14.0410156 18.2241211,14.0527344 C18.7807617,14.0527344 19.2626953,13.8945312 19.6699219,13.578125 C20.0654297,13.2587891 20.3334961,12.8017578 20.4741211,12.2070312 L19.4458008,12.2070312 Z M4,17 L20,17 L20,18 L4,18 Z" id="形状结合" fill="#FFFFFF" fill-rule="nonzero"></path>
    </g>
</svg>