<?xml version="1.0" encoding="UTF-8"?>
<svg width="24px" height="24px" viewBox="0 0 24 24" version="1.1" xmlns="http://www.w3.org/2000/svg" xmlns:xlink="http://www.w3.org/1999/xlink">
    <title>标注-数字</title>
    <g id="标注-数字" stroke="none" stroke-width="1" fill="none" fill-rule="evenodd">
        <path d="M5.84155273,8.26196289 L5.84155273,14 L6.81103516,14 L6.81103516,7.23681641 L5.84155273,7.23681641 L4.88134766,7.93725586 L4.88134766,8.96704102 L5.84155273,8.26196289 Z M9.8659668,14 L13.7207031,14 L13.7207031,13.0305176 L11.1369629,13.0305176 L13.3125,10.3029785 C13.5846354,9.95662435 13.7207031,9.56079102 13.7207031,9.11547852 C13.7145182,8.55883789 13.5274251,8.09960938 13.1594238,7.73779297 C12.7976074,7.37288411 12.3260091,7.18733724 11.7446289,7.18115234 C11.2250977,7.18733724 10.7875163,7.36979167 10.4318848,7.72851562 C10.0793457,8.09651693 9.89070638,8.56193034 9.8659668,9.12475586 L10.8308105,9.12475586 C10.8648275,8.81551107 10.9730632,8.57584635 11.1555176,8.40576172 C11.3317871,8.23567708 11.5528971,8.15063477 11.8188477,8.15063477 C12.1188151,8.15681966 12.3507487,8.25423177 12.5146484,8.44287109 C12.6723633,8.63151042 12.7512207,8.85262044 12.7512207,9.10620117 C12.7512207,9.20206706 12.7388509,9.30411784 12.7141113,9.41235352 C12.677002,9.52677409 12.6074219,9.65047201 12.5053711,9.78344727 L9.8659668,13.0861816 L9.8659668,14 Z M16.7895508,10.9431152 L17.1977539,10.9431152 C17.4977214,10.9431152 17.7451172,11.0343424 17.9399414,11.2167969 C18.1378581,11.4054362 18.2399089,11.6713867 18.2460938,12.0146484 C18.2399089,12.3517253 18.1378581,12.6114909 17.9399414,12.7939453 C17.7451172,12.9887695 17.5054525,13.0861816 17.2209473,13.0861816 C16.9549967,13.0861816 16.7416178,13.0135091 16.5808105,12.8681641 C16.4230957,12.7290039 16.300944,12.5465495 16.2143555,12.3208008 L15.244873,12.3208008 C15.3500163,12.8836263 15.5804036,13.3134766 15.9360352,13.6103516 C16.2916667,13.9072266 16.6998698,14.0556641 17.1606445,14.0556641 C17.757487,14.0494792 18.2460938,13.8592936 18.6264648,13.4851074 C19.0130208,13.1201986 19.2093913,12.6207682 19.2155762,11.9868164 C19.2155762,11.7023112 19.1552734,11.4301758 19.034668,11.1704102 C18.9078776,10.9106445 18.7022298,10.6879883 18.4177246,10.5024414 C18.6960449,10.3138021 18.8893229,10.098877 18.9975586,9.85766602 C19.090332,9.61645508 19.1367188,9.3659668 19.1367188,9.10620117 C19.1305339,8.59285482 18.9542643,8.14754232 18.6079102,7.77026367 C18.2460938,7.38370768 17.757487,7.18733724 17.1420898,7.18115234 C16.6565755,7.18733724 16.2390951,7.36051432 15.8896484,7.70068359 C15.5340169,8.04394531 15.3314616,8.46606445 15.2819824,8.96704102 L16.2514648,8.96704102 C16.3133138,8.6887207 16.4339193,8.48307292 16.6132812,8.35009766 C16.7833659,8.2171224 16.9720052,8.15063477 17.1791992,8.15063477 C17.4667969,8.15681966 17.7018229,8.24804688 17.8842773,8.42431641 C18.0667318,8.60677083 18.1610514,8.84025065 18.1672363,9.12475586 C18.1672363,9.40616862 18.0760091,9.63500977 17.8935547,9.8112793 C17.7111003,9.99373372 17.4544271,10.0849609 17.1235352,10.0849609 L16.7895508,10.0849609 L16.7895508,10.9431152 Z M4,17 L20,17 L20,18 L4,18 Z" id="形状结合" fill="#FFFFFF" fill-rule="nonzero"></path>
    </g>
</svg>