<?xml version="1.0" standalone="no"?><!DOCTYPE svg PUBLIC "-//W3C//DTD SVG 1.1//EN" "http://www.w3.org/Graphics/SVG/1.1/DTD/svg11.dtd"><svg t="1671971355472" class="icon" viewBox="0 0 1024 1024" version="1.1" xmlns="http://www.w3.org/2000/svg" p-id="12700" xmlns:xlink="http://www.w3.org/1999/xlink" width="128" height="128"><path d="M511.342526 68.514443c-244.177232 0-442.125583 197.964724-442.125583 442.142979 0 244.178255 197.947328 442.108187 442.125583 442.108187 244.179278 0 442.126606-197.929932 442.126606-442.108187C953.469132 266.479167 755.521804 68.514443 511.342526 68.514443M511.342526 908.256906c-219.5923 0-397.615856-178.004113-397.615856-397.59846 0-219.629139 178.022533-397.633253 397.615856-397.633253 219.59537 0 397.61688 178.004113 397.61688 397.633253C908.959406 730.251769 730.937896 908.256906 511.342526 908.256906" fill="#8a8a8a" p-id="12701"></path><path d="M361.765859 626.732068l-22.697955 0L339.067904 417.778058c0-0.973164-0.156566-1.912559-0.252757-2.816139-0.051165-3.477194-0.669242-6.850012-2.469238-9.979282-0.62524-1.078565-1.62501-1.704828-2.390443-2.608407-0.956791-1.286296-2.025123-2.434445-3.181459-3.477194-0.199545-0.13917-0.338714-0.347924-0.555655-0.487094-3.704368-3.094478-8.275477-4.972245-13.283538-4.972245-4.842285 0-9.293667 1.738597-12.944823 4.659113l-45.804209 28.27088c-11.640108 6.746658-16.126282 20.759813-10.023284 31.365358 6.085602 10.605545 20.48966 13.734816 32.17377 6.989181l14.474666-9.632381 0 171.642219-22.697955 0c-12.378935 0-22.403243 9.109472-22.403243 20.37505 0 11.232832 10.023284 20.344351 22.403243 20.344351l89.653903 0c12.378935 0 22.420639-9.111518 22.420639-20.344351C384.186498 635.842563 374.144794 626.732068 361.765859 626.732068" fill="#8a8a8a" p-id="12702"></path><path d="M548.481378 474.076272c0 23.784706-35.390022 49.934273-75.893504 84.394109-37.285185 31.713282-52.316529 57.82908-57.793264 91.106997 0 11.231809 6.815219 20.515243 19.186991 20.515243l143.414317 0c12.369725 0 22.410406-9.109472 22.410406-20.342304 0-11.265578-10.04068-20.342304-22.410406-20.342304 0 0-110.406552 0.347924-111.414509-0.973164-4.720511-6.259564 36.207643-44.301995 62.470797-64.190975 38.919405-29.452799 60.922535-59.984163 61.174268-96.253204 0.286526-40.301891-31.513738-72.815399-89.289606-72.815399-63.826678 0-97.886401 59.427484-75.892481 75.770707 26.880207 19.99438 43.971467-34.355459 82.857103-34.355459C528.859481 436.59052 548.481378 441.041902 548.481378 474.076272" fill="#8a8a8a" p-id="12703"></path><path d="M764.605693 532.252253c19.856233-14.95255 29.036313-32.130791 29.036313-68.260663 0-30.496571-28.643364-67.077721-73.848938-67.077721-48.422849 0-76.928067 18.847254-87.560218 38.668695-10.162454 18.986423 8.528234 39.259142 29.321816 16.691147 16.171308-17.491373 36.060287-19.438725 56.907081-19.438725 28.89612 0 40.163745 20.794605 38.294165 44.057425-2.137687 25.975605-48.369637 36.824697-74.067926 36.824697 0 0-26.880207-3.164063-26.880207 20.829398 0 15.857153 37.95545 15.405875 37.95545 15.405875 38.355563 0 62.122873 18.185174 61.358463 43.849694-0.947582 31.53932-57.45455 55.776328-103.495142 25.071002-25.072025-16.760732-36.233226 13.07376-19.429515 29.036313 21.455661 20.411889 57.045227 20.444635 81.45722 20.444635 34.878368 0 79.987752-28.791743 79.987752-73.961502C793.642007 567.616692 784.46295 547.170011 764.605693 532.252253" fill="#8a8a8a" p-id="12704"></path></svg>