<?xml version="1.0" standalone="no"?><!DOCTYPE svg PUBLIC "-//W3C//DTD SVG 1.1//EN" "http://www.w3.org/Graphics/SVG/1.1/DTD/svg11.dtd"><svg t="1717064478461" class="icon" viewBox="0 0 1024 1024" version="1.1" xmlns="http://www.w3.org/2000/svg" p-id="2199" width="256" height="256" xmlns:xlink="http://www.w3.org/1999/xlink"><path d="M215.80964347 825.67180137c18.84847724 1.49130809 26.80212037 17.64714572 37.98693103 29.41190953a367.02749076 367.02749076 0 0 0 81.81481876 63.29774332H32.75157555c-22.36962133 0.28997657-17.39859437-14.08457639-17.39859438-25.89076542V130.14227879c0-22.07964477 1.78128466-32.39452571 29.45333476-32.3945257 311.64196535 1.15990629 623.24250548 1.15990629 934.84304562 0 22.70102313 0 29.45333475 4.97102697 29.45333475 29.41190952v762.38983522c0 25.89076543-8.24361971 29.41190953-31.77314734 29.41190954-152.77622866 0-305.8424339-1.73985943-458.90863913 0A307.29231677 307.29231677 0 0 1 253.50659792 781.2639605c-4.72247562-6.46233505-9.73492781-12.63469353-14.70595475-19.13845381a121.87301104 121.87301104 0 0 1-40.92812201-86.53729439c-32.39452571-185.17075437 64.16767305-340.51534697 241.38478428-386.49734636a325.27086427 325.27086427 0 0 1 382.64480048 214.9140657 330.24189123 330.24189123 0 0 1-15.32733314 243.99457343 68.26877029 68.26877029 0 0 1-71.25138647 46.52052732h-63.54629467c-9.40352601 0-20.58833667-2.07126124-23.86092942-11.7647638-3.23116752-9.73492781 5.01245218-15.03735657 10.89483408-20.91973848a230.73850153 230.73850153 0 0 0 48.59178857-75.35248371 214.00271075 214.00271075 0 0 0-107.45703285-276.38909915 208.12032885 208.12032885 0 0 0-281.98150447 112.42805982 209.28023515 209.28023515 0 0 0 191.63308942 292.586362c117.73048857-2.07126124 233.09973934 0 349.67032161 0 42.99938323 0 45.36062103-2.65121438 45.36062105-46.4791021V246.05005748c0-42.95795801-2.98261618-45.60917238-46.23055076-45.89914895H166.3893504c-43.57933637 0-45.94057419 2.65121438-46.23055075 46.18912552v523.07631218c0 44.4492661 1.78128466 45.31919582 45.31919582 46.52052734 17.10861779 0.57995315 35.62569324-3.8525459 50.331648 9.69350257z" fill="#515151" p-id="2200"></path></svg>