<?xml version="1.0" encoding="UTF-8"?>
<svg width="24px" height="24px" viewBox="0 0 24 24" version="1.1" xmlns="http://www.w3.org/2000/svg" xmlns:xlink="http://www.w3.org/1999/xlink">
    <title>箭头2</title>
    <g id="箭头2" stroke="none" stroke-width="1" fill="none" fill-rule="evenodd">
        <rect id="箭头2" x="0" y="0" width="24" height="24"></rect>
        <path d="M17.5,6 C17.7761424,6 18,6.22385763 18,6.5 L18,12.7928932 C18,13.0690356 17.7761424,13.2928932 17.5,13.2928932 C17.3673918,13.2928932 17.2402148,13.2402148 17.1464466,13.1464466 L14.548,10.548 L7.03033009,18.0303301 C6.73743687,18.3232233 6.26256313,18.3232233 5.96966991,18.0303301 C5.70340335,17.7640635 5.6791973,17.3473998 5.89705176,17.0537883 L5.96966991,16.9696699 L13.487,9.487 L10.8535534,6.85355339 C10.6582912,6.65829124 10.6582912,6.34170876 10.8535534,6.14644661 C10.9473216,6.05267842 11.0744985,6 11.2071068,6 L17.5,6 Z" id="形状结合" fill="#FFFFFF" fill-rule="nonzero"></path>
    </g>
</svg>