<?xml version="1.0" standalone="no"?><!DOCTYPE svg PUBLIC "-//W3C//DTD SVG 1.1//EN" "http://www.w3.org/Graphics/SVG/1.1/DTD/svg11.dtd"><svg t="1640614480235" class="icon" viewBox="0 0 1024 1024" version="1.1" xmlns="http://www.w3.org/2000/svg" p-id="9738" xmlns:xlink="http://www.w3.org/1999/xlink" width="24px" height="24px"><defs><style type="text/css"></style></defs><rect id="矩形" x="0" y="0" width="24" height="24"></rect><path d="M832 64H192c-70.4 0-128 57.6-128 128v640c0 70.4 57.6 128 128 128h640c70.4 0 128-57.6 128-128V192c0-70.4-57.6-128-128-128z m64 768c0 35.2-28.8 64-64 64H192c-35.2 0-64-28.8-64-64V192c0-35.2 28.8-64 64-64h640c35.2 0 64 28.8 64 64v640z m-52.8-484.8c-9.6 14.4-30.4 17.6-44.8 8 0 0-60.8-40-161.6-40-43.2 0-76.8 16-112 33.6-38.4 19.2-80 40-136 40-131.2 0-203.2-78.4-206.4-81.6-11.2-12.8-11.2-33.6 3.2-44.8 12.8-11.2 33.6-11.2 44.8 3.2 3.2 3.2 56 60.8 158.4 60.8 40 0 70.4-16 107.2-33.6 38.4-19.2 81.6-41.6 140.8-41.6 123.2 0 195.2 48 198.4 49.6 14.4 12.8 17.6 32 8 46.4z m-659.2 152c-11.2-12.8-11.2-33.6 3.2-44.8 12.8-11.2 33.6-11.2 44.8 3.2 3.2 3.2 56 60.8 158.4 60.8 40 0 70.4-16 107.2-33.6 38.4-19.2 81.6-41.6 140.8-41.6 123.2 0 195.2 48 198.4 49.6 14.4 9.6 17.6 30.4 8 44.8-9.6 14.4-30.4 17.6-44.8 8 0 0-60.8-40-161.6-40-43.2 0-76.8 16-112 33.6-38.4 19.2-80 40-136 40-132.8 1.6-203.2-76.8-206.4-80z m659.2 228.8c-9.6 14.4-30.4 17.6-44.8 8 0 0-60.8-40-161.6-40-43.2 0-76.8 16-112 33.6-38.4 19.2-80 40-136 40-131.2 0-203.2-78.4-206.4-81.6-11.2-12.8-11.2-33.6 3.2-44.8 12.8-11.2 33.6-11.2 44.8 3.2 3.2 3.2 56 60.8 158.4 60.8 40 0 70.4-16 107.2-33.6 38.4-19.2 81.6-41.6 140.8-41.6 123.2 0 195.2 48 198.4 49.6 14.4 11.2 17.6 32 8 46.4z" fill="#8a8a8a" p-id="9739"></path></svg>