<?xml version="1.0" standalone="no"?><!DOCTYPE svg PUBLIC "-//W3C//DTD SVG 1.1//EN" "http://www.w3.org/Graphics/SVG/1.1/DTD/svg11.dtd"><svg t="1640614307544" class="icon" viewBox="0 0 1024 1024" version="1.1" xmlns="http://www.w3.org/2000/svg" p-id="5424" xmlns:xlink="http://www.w3.org/1999/xlink" width="64" height="64"><defs><style type="text/css"></style></defs><path d="M230.4 179.2a51.2 51.2 0 0 0-51.2 51.2v563.2a51.2 51.2 0 0 0 51.2 51.2h563.2a51.2 51.2 0 0 0 51.2-51.2V230.4a51.2 51.2 0 0 0-51.2-51.2H230.4z m0-51.2h563.2A102.4 102.4 0 0 1 896 230.4v563.2a102.4 102.4 0 0 1-102.4 102.4H230.4A102.4 102.4 0 0 1 128 793.6V230.4A102.4 102.4 0 0 1 230.4 128z" p-id="5425" fill="#8a8a8a"></path><path d="M256 224h249.6v281.6H224V256a32 32 0 0 1 32-32zM512 512h281.6v249.6a32 32 0 0 1-32 32H512V512z" p-id="5426" fill="#8a8a8a"></path></svg>