<?xml version="1.0" standalone="no"?><!DOCTYPE svg PUBLIC "-//W3C//DTD SVG 1.1//EN" "http://www.w3.org/Graphics/SVG/1.1/DTD/svg11.dtd"><svg t="1672054079850" class="icon" viewBox="0 0 1024 1024" version="1.1" xmlns="http://www.w3.org/2000/svg" p-id="2036" xmlns:xlink="http://www.w3.org/1999/xlink" width="128" height="128"><path d="M341.333333 170.666667v682.666666H256V170.666667z" fill="#8a8a8a" p-id="2037"></path><path d="M576 170.666667a192 192 0 1 1 0 384H341.333333a85.333333 85.333333 0 0 1-85.333333-85.333334V256a85.333333 85.333333 0 0 1 85.333333-85.333333h234.666667z m0 85.333333H341.333333v213.333333h234.666667a106.666667 106.666667 0 1 0 0-213.333333z" fill="#8a8a8a" p-id="2038"></path><path d="M576 469.333333a192 192 0 1 1 0 384H341.333333a85.333333 85.333333 0 0 1-85.333333-85.333333v-213.333333a85.333333 85.333333 0 0 1 85.333333-85.333334h234.666667z m0 85.333334H341.333333v213.333333h234.666667a106.666667 106.666667 0 1 0 0-213.333333z" fill="#8a8a8a" p-id="2039"></path></svg>