<?xml version="1.0" encoding="UTF-8"?>
<svg width="24px" height="24px" viewBox="0 0 24 24" version="1.1" xmlns="http://www.w3.org/2000/svg" xmlns:xlink="http://www.w3.org/1999/xlink">
    <title>文字-加粗</title>
    <g id="文字-加粗" stroke="none" stroke-width="1" fill="none" fill-rule="evenodd">
        <rect id="矩形" x="0" y="0" width="24" height="24"></rect>
        <path d="M8.92837249,18.5 L12.1931818,18.5 L12.1931818,18.5 C14.9715909,18.5 17,17.2652646 17,14.6899593 C17,12.9260516 15.9602273,11.9206242 14.5284091,11.6031208 L14.5284091,11.5149254 C15.6534091,11.1268657 16.3181818,9.94504749 16.3181818,8.71031208 C16.3181818,6.36431479 14.4602273,5.5 11.8863636,5.5 L8.92837249,5.5 C8.41564652,5.5 8,5.91564652 8,6.42837249 L8,17.5716275 C8,18.0843535 8.41564652,18.5 8.92837249,18.5 Z M9.97727273,10.9328358 L9.97727273,7.10515604 L11.7159091,7.10515604 C13.4886364,7.10515604 14.375,7.61668928 14.375,8.97489824 C14.375,10.1919946 13.5738636,10.9328358 11.6647727,10.9328358 L9.97727273,10.9328358 Z M9.97727273,16.894844 L9.97727273,12.4674355 L11.9715909,12.4674355 C13.9659091,12.4674355 15.0568182,13.1200814 15.0568182,14.5841248 C15.0568182,16.1716418 13.9318182,16.894844 11.9715909,16.894844 L9.97727273,16.894844 Z" id="形状" fill="#FFFFFF" fill-rule="nonzero"></path>
    </g>
</svg>