<?xml version="1.0" encoding="UTF-8"?>
<svg width="24px" height="24px" viewBox="0 0 24 24" version="1.1" xmlns="http://www.w3.org/2000/svg" xmlns:xlink="http://www.w3.org/1999/xlink">
    <title>文字-斜体</title>
    <g id="文字-斜体" stroke="none" stroke-width="1" fill="none" fill-rule="evenodd">
        <rect id="矩形" x="0" y="0" width="24" height="24"></rect>
        <path d="M12,6 L13.25,6 L11.25,18 L12.5,18 C12.7761424,18 13,18.2238576 13,18.5 C13,18.7761424 12.7761424,19 12.5,19 L8.5,19 C8.22385763,19 8,18.7761424 8,18.5 C8,18.2238576 8.22385763,18 8.5,18 L10,18 L12,6 Z M10.5,5 L14.5,5 C14.7761424,5 15,5.22385763 15,5.5 C15,5.77614237 14.7761424,6 14.5,6 L10.5,6 C10.2238576,6 10,5.77614237 10,5.5 C10,5.22385763 10.2238576,5 10.5,5 Z" id="形状结合" fill="#FFFFFF" fill-rule="nonzero"></path>
    </g>
</svg>