<?xml version="1.0" encoding="UTF-8"?>
<svg width="24px" height="24px" viewBox="0 0 24 24" version="1.1" xmlns="http://www.w3.org/2000/svg" xmlns:xlink="http://www.w3.org/1999/xlink">
    <title>文字-描边</title>
    <g id="文字-描边" stroke="none" stroke-width="1" fill="none" fill-rule="evenodd">
        <rect id="矩形" x="0" y="0" width="24" height="24"></rect>
        <path d="M13.2712541,5.80293891 L13.3030502,5.86185969 L13.3678025,5.99821811 L17.8121176,16.8730846 C18.1204155,17.6274638 17.7658772,18.4932296 17.0134283,18.8084851 C16.3240761,19.0973047 15.5337055,18.8236791 15.1351653,18.1263097 L15.0765782,18.0017949 L13.766,14.797 L10.232,14.797 L8.92348733,18.0016346 C8.65890674,18.6490411 7.98477132,19.0166221 7.26180522,18.8876206 L7.11666781,18.855135 L6.98657171,18.8084851 C6.30249966,18.5218777 5.93972904,17.774236 6.14241589,17.0031677 L6.18788239,16.8730846 L10.6321975,5.99821811 C11.098177,4.85800551 12.6564748,4.75639257 13.2712541,5.80293891 Z M12.4753447,6.27048492 C12.2493641,5.88579526 11.6648482,5.91144123 11.4866723,6.34742285 L7.04235711,17.2222894 L7.01822021,17.2947801 C6.9485328,17.5627132 7.08339555,17.848231 7.34327338,17.9571127 L7.41486798,17.9815517 C7.6794888,18.0521114 7.96147696,17.9155606 8.06901261,17.6524299 L9.613,13.874 L14.386,13.874 L15.9309874,17.6524299 L15.9644964,17.7209939 C16.1021655,17.9604446 16.3968488,18.0659944 16.6567266,17.9571127 C16.9402297,17.8383327 17.0749545,17.5093411 16.9576429,17.2222894 L12.5133277,6.34742285 L12.4753447,6.27048492 Z M12,8.03397503 L13.927,12.749 L10.073,12.749 L12,8.03397503 Z M12,10.474 L11.447,11.825 L12.552,11.825 L12,10.474 Z" id="形状结合" fill="#FFFFFF" fill-rule="nonzero"></path>
    </g>
</svg>